HIERARCHY
ROOT Hips
{
	OFFSET	0.00	0.00	0.00
	CHANNELS 6 Xposition Yposition Zposition Zrotation Xrotation Yrotation
	JOINT LeftUpLeg
	{
		OFFSET	 0.126116	-0.065224	 0.014019
		CHANNELS 3 Zrotation Xrotation Yrotation
		JOINT LeftLeg
		{
			OFFSET	 0.000000	 0.569914	 0.000000
			CHANNELS 3 Zrotation Xrotation Yrotation
			JOINT LeftFoot
			{
				OFFSET	 0.000000	 0.544423	 0.000000
				CHANNELS 3 Zrotation Xrotation Yrotation
				JOINT LeftToeBase
				{
					OFFSET	 0.000000	 0.207117	 0.000000
					CHANNELS 3 Zrotation Xrotation Yrotation
					End Site
					{
						OFFSET	 0.000000	 0.207117	 0.000000
					}
				}
			}
		}
	}
	JOINT RightUpLeg
	{
		OFFSET	-0.124023	-0.065224	 0.008373
		CHANNELS 3 Zrotation Xrotation Yrotation
		JOINT RightLeg
		{
			OFFSET	 0.000000	 0.570047	 0.000000
			CHANNELS 3 Zrotation Xrotation Yrotation
			JOINT RightFoot
			{
				OFFSET	 0.000000	 0.544354	 0.000000
				CHANNELS 3 Zrotation Xrotation Yrotation
				JOINT RightToeBase
				{
					OFFSET	 0.000000	 0.207540	 0.000000
					CHANNELS 3 Zrotation Xrotation Yrotation
					End Site
					{
						OFFSET	 0.000000	 0.207540	 0.000000
					}
				}
			}
		}
	}
	JOINT Spine
	{
		OFFSET	 0.000184	 0.117403	 0.007763
		CHANNELS 3 Zrotation Xrotation Yrotation
		JOINT Spine1
		{
			OFFSET	 0.000000	 0.137269	 0.000000
			CHANNELS 3 Zrotation Xrotation Yrotation
			JOINT Spine2
			{
				OFFSET	 0.000000	 0.156879	 0.000000
				CHANNELS 3 Zrotation Xrotation Yrotation
				JOINT LeftShoulder
				{
					OFFSET	 0.080501	 0.160143	 0.002496
					CHANNELS 3 Zrotation Xrotation Yrotation
					JOINT LeftArm
					{
						OFFSET	 0.000000	 0.164363	 0.000000
						CHANNELS 3 Zrotation Xrotation Yrotation
						JOINT LeftForeArm
						{
							OFFSET	 0.000000	 0.364576	 0.000000
							CHANNELS 3 Zrotation Xrotation Yrotation
							JOINT LeftHand
							{
								OFFSET	 0.000000	 0.360812	 0.000000
								CHANNELS 3 Zrotation Xrotation Yrotation
								JOINT LeftHandIndex1
								{
									OFFSET	 0.000000	 0.086006	 0.000000
									CHANNELS 3 Zrotation Xrotation Yrotation
									JOINT LeftHandIndex2
									{
										OFFSET	 0.000000	 0.047237	 0.000000
										CHANNELS 3 Zrotation Xrotation Yrotation
										JOINT LeftHandIndex3
										{
											OFFSET	-0.004284	 0.038165	 0.000551
											CHANNELS 3 Zrotation Xrotation Yrotation
											End Site
											{
												OFFSET	-0.004284	 0.038165	 0.000551
											}
										}
									}
								}
							}
						}
					}
				}
				JOINT Neck
				{
					OFFSET	 0.000000	 0.176489	 0.000000
					CHANNELS 3 Zrotation Xrotation Yrotation
					JOINT Head
					{
						OFFSET	 0.000000	 0.077941	 0.001747
						CHANNELS 3 Zrotation Xrotation Yrotation
						End Site
						{
							OFFSET	 0.000000	 0.077941	 0.001747
						}
					}
				}
				JOINT RightShoulder
				{
					OFFSET	-0.080363	 0.159706	-0.000306
					CHANNELS 3 Zrotation Xrotation Yrotation
					JOINT RightArm
					{
						OFFSET	 0.000000	 0.164196	 0.000000
						CHANNELS 3 Zrotation Xrotation Yrotation
						JOINT RightForeArm
						{
							OFFSET	 0.000000	 0.365611	 0.000000
							CHANNELS 3 Zrotation Xrotation Yrotation
							JOINT RightHand
							{
								OFFSET	 0.000000	 0.360648	 0.000000
								CHANNELS 3 Zrotation Xrotation Yrotation
								JOINT RightHandIndex1
								{
									OFFSET	 0.000000	 0.069977	 0.000000
									CHANNELS 3 Zrotation Xrotation Yrotation
									JOINT RightHandIndex2
									{
										OFFSET	 0.000000	 0.052305	 0.000000
										CHANNELS 3 Zrotation Xrotation Yrotation
										JOINT RightHandIndex3
										{
											OFFSET	 0.009002	 0.042196	 0.000782
											CHANNELS 3 Zrotation Xrotation Yrotation
											End Site
											{
												OFFSET	 0.009002	 0.042196	 0.000782
											}
										}
									}
								}
							}
						}
					}
				}
			}
		}
	}
}
MOTION
Frames:    6
Frame Time: 0.03333334
 0.436621	 1.275014	 0.408045	 0.589349	-2.728689	-177.221500	-179.203200	 6.893173	-11.872020	 3.254510	-12.062690	 6.010373	 5.645169	 69.268530	-1.700932	 1.292262	 28.425850	-2.713146	 176.737800	 7.492970	 13.553850	-1.815547	-9.360034	 0.772259	 0.125810	 65.493090	-5.513054	-1.288183	 28.361890	 2.710176	 1.019875	 6.513444	 7.724269	-2.346667	-7.227506	 3.623931	 2.689866	 8.304131	-12.071570	-117.804200	-0.884981	 89.911280	 11.040790	-1.008168	-6.005206	 4.904659	-0.370656	 33.861280	 31.293440	-12.297280	 12.559670	-6.580301	 5.266122	 0.000000	 0.000000	 0.000000	 0.000000	 0.000000	 0.000000	 0.000000	 5.036800	 27.870880	 1.511974	-4.250698	-17.209630	-2.989325	 116.831700	-0.590190	-90.516810	-11.868650	-4.641973	 22.442530	-5.081308	 0.157828	-56.592880	 12.434090	 6.052134	 18.888240	 15.208500	 5.323790	 0.000000	 0.000000	 0.000000	 0.000000	 0.000000	 0.000000	 0.000000
 0.437011	 1.279685	 0.414373	 0.589661	-3.955946	-177.113000	-179.200200	 6.070401	-11.694370	 1.894411	-7.093210	 6.054061	 6.407953	 66.166260	-1.648586	 1.292262	 28.425850	-2.713146	 176.761500	 7.009696	 13.576750	-0.968922	-5.027855	 0.489859	-1.474608	 62.845220	-4.632364	-1.288183	 28.361890	 2.710176	 0.962212	 7.219806	 7.744402	-2.517357	-11.203480	 3.544642	 3.060251	 12.523080	-12.281940	-118.992800	-1.244667	 89.743990	 11.754300	-6.882452	-1.801324	 4.901193	-0.282405	 31.155070	 36.383800	-5.108372	 12.473440	-6.580301	 5.266122	 0.000000	 0.000000	 0.000000	 0.000000	 0.000000	 0.000000	 0.000000	 5.907512	 30.466150	 0.779079	-4.382488	-18.363930	-2.884819	 118.706900	-1.102893	-90.325780	-12.209020	-10.861210	 23.874320	-5.010035	 0.278957	-54.922020	 6.274814	 11.925110	 11.629880	 15.208500	 5.323790	 0.000000	 0.000000	 0.000000	 0.000000	 0.000000	 0.000000	 0.000000
 0.437548	 1.285875	 0.422909	 0.528530	-5.273787	-176.997200	-179.366900	 6.902189	-11.456530	 1.313381	-4.931189	 6.294794	 7.353067	 64.364310	-1.963541	 1.292262	 28.425850	-2.713146	 176.605500	 8.903463	 13.619050	-0.963817	-5.001521	 0.068424	-2.670618	 62.235210	-3.752184	-1.288183	 28.361890	 2.710176	 0.832949	 7.848505	 7.645748	-2.599689	-15.072060	 3.426269	 3.404144	 16.956420	-12.358830	-120.348200	-1.649996	 89.544380	 12.136710	-14.506220	 3.000847	 4.857942	-0.192706	 28.475950	 43.295410	 2.879981	 9.847021	-6.580301	 5.266122	 0.000000	 0.000000	 0.000000	 0.000000	 0.000000	 0.000000	 0.000000	 6.978886	 33.411720	-0.139470	-4.528618	-19.671170	-2.708755	 120.845900	-1.679044	-90.087730	-12.042220	-18.863450	 26.145930	-4.879620	 0.410376	-53.647220	-1.263533	 20.164660	 4.874774	 15.208500	 5.323790	 0.000000	 0.000000	 0.000000	 0.000000	 0.000000	 0.000000	 0.000000
 0.437897	 1.289276	 0.427516	 0.495716	-5.930199	-176.938200	-179.481000	 7.868546	-11.317010	 1.309409	-4.916372	 6.450061	 7.882945	 63.995080	-2.275033	 1.292262	 28.425850	-2.713146	 176.524400	 9.860263	 13.640450	-0.960976	-4.986801	-0.143993	-3.251707	 61.912360	-3.338730	-1.288183	 28.361890	 2.710176	 0.753707	 8.206396	 7.315139	-2.597573	-17.266620	 3.245973	 3.577507	 19.882510	-12.025230	-121.058400	-1.860318	 89.436040	 12.339650	-18.263630	 5.226708	 4.838104	-0.151322	 27.210690	 46.168800	 7.179394	 8.061038	-6.580301	 5.266122	 0.000000	 0.000000	 0.000000	 0.000000	 0.000000	 0.000000	 0.000000	 7.577659	 34.947700	-0.659920	-4.598332	-20.215070	-2.513826	 121.967100	-1.977044	-89.954540	-11.914370	-22.729890	 27.048660	-4.814538	 0.477740	-53.188650	-5.779222	 24.661420	 2.031918	 15.208500	 5.323790	 0.000000	 0.000000	 0.000000	 0.000000	 0.000000	 0.000000	 0.000000
 0.438041	 1.290227	 0.428711	 0.484301	-6.098756	-176.924500	-179.509300	 8.115557	-11.281200	 1.308399	-4.912607	 6.487707	 8.008937	 63.900830	-2.351223	 1.292262	 28.425850	-2.713146	 176.501600	 10.104720	 13.720950	-0.966724	-4.981791	-0.269560	-3.389224	 61.830650	-3.244164	-1.288183	 28.361890	 2.710176	 0.692696	 8.437949	 6.736921	-2.481525	-18.362210	 2.963802	 3.562134	 21.702160	-11.226920	-121.231700	-1.911374	 89.409220	 12.537580	-19.080990	 5.282424	 4.834132	-0.141799	 26.914600	 44.956910	 9.243377	 7.739260	-6.580301	 5.266122	 0.000000	 0.000000	 0.000000	 0.000000	 0.000000	 0.000000	 0.000000	 7.727890	 35.321360	-0.791228	-4.603108	-20.123380	-2.282305	 122.240500	-2.049271	-89.921190	-11.966020	-23.576340	 26.681810	-4.798978	 0.494140	-53.095290	-8.427900	 25.660330	 1.267160	 15.208500	 5.323790	 0.000000	 0.000000	 0.000000	 0.000000	 0.000000	 0.000000	 0.000000
 0.438022	 1.289449	 0.427526	 0.482682	-5.937201	-176.942500	-179.486600	 7.874422	-11.321580	 1.309169	-4.915496	 6.442208	 7.853668	 63.996090	-2.260794	 1.292262	 28.425850	-2.713146	 176.513100	 9.866630	 13.642790	-0.960956	-4.986678	-0.133415	-3.225396	 61.913390	-3.362595	-1.288183	 28.361890	 2.710176	 0.630451	 8.594481	 5.981956	-2.268831	-18.702700	 2.594856	 3.378324	 22.627330	-10.065520	-121.022600	-1.849736	 89.441560	 12.757200	-17.955270	 3.944314	 4.833744	-0.152925	 27.272560	 40.815930	 9.656512	 8.422598	-6.580301	 5.266122	 0.000000	 0.000000	 0.000000	 0.000000	 0.000000	 0.000000	 0.000000	 7.546765	 34.870290	-0.632952	-4.562868	-19.608760	-2.019782	 121.910400	-1.962067	-89.961400	-12.170220	-22.479960	 25.569600	-4.812552	 0.474285	-53.208960	-9.735610	 24.087000	 1.525658	 15.208500	 5.323790	 0.000000	 0.000000	 0.000000	 0.000000	 0.000000	 0.000000	 0.000000
